# xmcd
#
# Track frame offsets: 
#        182
#        10517
#        21450
#        32482
#        44705
#        55415
#        67382
#        77230
#        86990
#        97600
#        108500
#        118812
#        127545
#
# Disc length: 1849 seconds
#
# Revision: 6
# Processed by: cddbd v1.5.2PL0 Copyright (c) Steve Scherf et al.
# Submitted via: ExactAudioCopy v0.99pb5
#
DISCID=aa07370d
DTITLE=Various Artist - 60s Bubblegum Hits
DYEAR=1991
DGENRE=Oldies
TTITLE0=1910 Fruitgum Company - Simon Says
TTITLE1=Ohio Express - Mercy
TTITLE2=Lemon Pipers - Green Tambourine
TTITLE3=1920 Fruitgum Company - Indian Giver
TTITLE4=Kasenetz Katz Singing Circus - Quick Joey Small (run Joey Run)
TTITLE5=Ohio Express - Chewy Chewy
TTITLE6=Lemon Pipers - Rice Is Nice
TTITLE7=1920 Fruitgum Company - 1 2 3 Red Light
TTITLE8=Ohio Express - Yummy Yummy Yummy
TTITLE9=Lemon Pipers - Jelly Jungle
TTITLE10=1920 Fruitgum Company - Goody Goody Gumdrops
TTITLE11=Ohio Express - Down At Lulu's
TTITLE12=Lemon Pipers - Blueberry Blue
EXTD=ID3G: 11
EXTT0=
EXTT1=
EXTT2=
EXTT3=
EXTT4=
EXTT5=
EXTT6=
EXTT7=
EXTT8=
EXTT9=
EXTT10=
EXTT11=
EXTT12=
PLAYORDER=
